<mxfile host="Electron" agent="Mozilla/5.0 (Windows NT 10.0; Win64; x64) AppleWebKit/537.36 (KHTML, like Gecko) draw.io/24.7.5 Chrome/126.0.6478.183 Electron/31.3.0 Safari/537.36" version="24.7.5">
  <diagram id="yPxyJZ8AM_hMuL3Unpa9" name="github workflow">
    <mxGraphModel dx="1686" dy="1017" grid="1" gridSize="10" guides="1" tooltips="1" connect="1" arrows="1" fold="1" page="1" pageScale="1" pageWidth="1400" pageHeight="850" math="0" shadow="0">
      <root>
        <mxCell id="0" />
        <mxCell id="1" parent="0" />
        <mxCell id="3" value="" style="endArrow=none;dashed=1;html=1;fillColor=#dae8fc;strokeColor=#6c8ebf;entryX=0;entryY=0.5;entryDx=0;entryDy=0;strokeWidth=3;" parent="1" source="12" target="AYhglAYsVL35iBowotaw-235" edge="1">
          <mxGeometry width="50" height="50" relative="1" as="geometry">
            <mxPoint x="404" y="392" as="sourcePoint" />
            <mxPoint x="1060" y="392" as="targetPoint" />
            <Array as="points">
              <mxPoint x="1040" y="392" />
            </Array>
          </mxGeometry>
        </mxCell>
        <mxCell id="4" value="" style="ellipse;whiteSpace=wrap;html=1;aspect=fixed;fillColor=#dae8fc;strokeColor=#6c8ebf;fontStyle=1;labelPosition=center;verticalLabelPosition=top;align=center;verticalAlign=bottom;fontColor=#0066CC;strokeWidth=2;" parent="1" vertex="1">
          <mxGeometry x="394" y="382" width="20" height="20" as="geometry" />
        </mxCell>
        <mxCell id="12" value="" style="ellipse;whiteSpace=wrap;html=1;aspect=fixed;fillColor=#dae8fc;strokeColor=#6c8ebf;fontStyle=1;labelPosition=center;verticalLabelPosition=top;align=center;verticalAlign=bottom;fontColor=#0066CC;strokeWidth=2;" parent="1" vertex="1">
          <mxGeometry x="990" y="382" width="20" height="20" as="geometry" />
        </mxCell>
        <mxCell id="35" value="" style="endArrow=cross;dashed=1;html=1;fillColor=#dae8fc;strokeColor=#6c8ebf;startArrow=none;exitX=1;exitY=0.5;exitDx=0;exitDy=0;strokeWidth=3;endFill=0;" parent="1" source="AYhglAYsVL35iBowotaw-207" edge="1">
          <mxGeometry width="50" height="50" relative="1" as="geometry">
            <mxPoint x="680.0000000000166" y="392" as="sourcePoint" />
            <mxPoint x="750" y="392" as="targetPoint" />
            <Array as="points" />
          </mxGeometry>
        </mxCell>
        <mxCell id="AYhglAYsVL35iBowotaw-177" value="&lt;font&gt;Local&lt;/font&gt;" style="text;html=1;strokeColor=#6c8ebf;fillColor=#dae8fc;align=center;verticalAlign=middle;whiteSpace=wrap;rounded=0;fontColor=#58749C;" parent="1" vertex="1">
          <mxGeometry x="220" y="382" width="90" height="20" as="geometry" />
        </mxCell>
        <mxCell id="AYhglAYsVL35iBowotaw-178" value="&lt;span style=&quot;color: rgb(136, 104, 150);&quot;&gt;New Feature&amp;nbsp;&lt;/span&gt;" style="text;html=1;strokeColor=#82b366;fillColor=#d5e8d4;align=center;verticalAlign=middle;whiteSpace=wrap;rounded=0;fontColor=#5D8049;" parent="1" vertex="1">
          <mxGeometry x="220" y="301" width="90" height="20" as="geometry" />
        </mxCell>
        <mxCell id="AYhglAYsVL35iBowotaw-179" value="Pull Request" style="text;html=1;strokeColor=#9673a6;fillColor=#e1d5e7;align=center;verticalAlign=middle;whiteSpace=wrap;rounded=0;fontColor=#886896;" parent="1" vertex="1">
          <mxGeometry x="220" y="149" width="90" height="20" as="geometry" />
        </mxCell>
        <mxCell id="AYhglAYsVL35iBowotaw-180" value="&lt;font&gt;Remote&lt;/font&gt;" style="text;html=1;strokeColor=#666666;fillColor=#ECECEC;align=center;verticalAlign=middle;whiteSpace=wrap;rounded=0;fontColor=#4F4F4F;" parent="1" vertex="1">
          <mxGeometry x="220" y="219" width="90" height="20" as="geometry" />
        </mxCell>
        <mxCell id="AYhglAYsVL35iBowotaw-183" style="edgeStyle=orthogonalEdgeStyle;rounded=1;orthogonalLoop=1;jettySize=auto;html=1;dashed=1;endArrow=none;endFill=0;fillColor=#d5e8d4;strokeColor=#82b366;exitX=0.5;exitY=0;exitDx=0;exitDy=0;strokeWidth=4;" parent="1" source="AYhglAYsVL35iBowotaw-207" target="AYhglAYsVL35iBowotaw-184" edge="1">
          <mxGeometry relative="1" as="geometry">
            <Array as="points">
              <mxPoint x="495" y="311" />
            </Array>
            <mxPoint x="498" y="392" as="sourcePoint" />
          </mxGeometry>
        </mxCell>
        <mxCell id="AYhglAYsVL35iBowotaw-184" value="" style="ellipse;whiteSpace=wrap;html=1;aspect=fixed;fillColor=#d5e8d4;strokeColor=#82b366;strokeWidth=2;" parent="1" vertex="1">
          <mxGeometry x="530" y="301" width="20" height="20" as="geometry" />
        </mxCell>
        <mxCell id="AYhglAYsVL35iBowotaw-185" value="" style="ellipse;whiteSpace=wrap;html=1;aspect=fixed;fillColor=#d5e8d4;strokeColor=#82b366;strokeWidth=2;" parent="1" vertex="1">
          <mxGeometry x="620" y="301" width="20" height="20" as="geometry" />
        </mxCell>
        <mxCell id="AYhglAYsVL35iBowotaw-186" style="edgeStyle=orthogonalEdgeStyle;rounded=1;orthogonalLoop=1;jettySize=auto;html=1;dashed=1;endArrow=none;endFill=0;fillColor=#d5e8d4;strokeColor=#82b366;strokeWidth=3;" parent="1" source="AYhglAYsVL35iBowotaw-184" target="AYhglAYsVL35iBowotaw-185" edge="1">
          <mxGeometry relative="1" as="geometry">
            <mxPoint x="1169" y="311" as="targetPoint" />
            <mxPoint x="599" y="311" as="sourcePoint" />
          </mxGeometry>
        </mxCell>
        <mxCell id="AYhglAYsVL35iBowotaw-188" style="edgeStyle=orthogonalEdgeStyle;rounded=1;orthogonalLoop=1;jettySize=auto;html=1;dashed=1;endArrow=none;endFill=0;fillColor=#d5e8d4;strokeColor=#82b366;entryX=1;entryY=0.5;entryDx=0;entryDy=0;exitX=0.5;exitY=1;exitDx=0;exitDy=0;strokeWidth=3;" parent="1" target="AYhglAYsVL35iBowotaw-185" edge="1" source="2xinhm0WvV6_IDHbmxLQ-174">
          <mxGeometry relative="1" as="geometry">
            <Array as="points">
              <mxPoint x="690" y="311" />
            </Array>
            <mxPoint x="640" y="230" as="sourcePoint" />
            <mxPoint x="579.0000945184051" y="321.0434782608696" as="targetPoint" />
          </mxGeometry>
        </mxCell>
        <mxCell id="AYhglAYsVL35iBowotaw-199" style="edgeStyle=orthogonalEdgeStyle;rounded=1;orthogonalLoop=1;jettySize=auto;html=1;dashed=1;endArrow=none;endFill=0;fontSize=12;fontColor=#FFB570;strokeColor=#666666;exitX=1;exitY=0.5;exitDx=0;exitDy=0;entryX=0;entryY=0.5;entryDx=0;entryDy=0;strokeWidth=3;" parent="1" source="AYhglAYsVL35iBowotaw-180" target="AYhglAYsVL35iBowotaw-201" edge="1">
          <mxGeometry relative="1" as="geometry">
            <Array as="points">
              <mxPoint x="400" y="229" />
              <mxPoint x="400" y="229" />
            </Array>
            <mxPoint x="438" y="219" as="sourcePoint" />
          </mxGeometry>
        </mxCell>
        <mxCell id="AYhglAYsVL35iBowotaw-200" style="edgeStyle=orthogonalEdgeStyle;rounded=1;orthogonalLoop=1;jettySize=auto;html=1;dashed=1;endArrow=none;endFill=0;fontSize=12;fontColor=#FFB570;strokeColor=#666666;exitX=1;exitY=0.5;exitDx=0;exitDy=0;strokeWidth=3;" parent="1" source="AYhglAYsVL35iBowotaw-201" edge="1">
          <mxGeometry relative="1" as="geometry">
            <mxPoint x="590" y="229" as="targetPoint" />
            <Array as="points">
              <mxPoint x="444" y="229" />
            </Array>
          </mxGeometry>
        </mxCell>
        <mxCell id="AYhglAYsVL35iBowotaw-202" style="edgeStyle=orthogonalEdgeStyle;rounded=1;orthogonalLoop=1;jettySize=auto;html=1;dashed=1;endArrow=none;endFill=0;fontSize=12;fontColor=#FFB570;strokeColor=#666666;" parent="1" source="2xinhm0WvV6_IDHbmxLQ-174" edge="1">
          <mxGeometry relative="1" as="geometry">
            <mxPoint x="587.9999999999998" y="229" as="sourcePoint" />
            <mxPoint x="660" y="229" as="targetPoint" />
          </mxGeometry>
        </mxCell>
        <mxCell id="AYhglAYsVL35iBowotaw-206" style="edgeStyle=orthogonalEdgeStyle;rounded=1;orthogonalLoop=1;jettySize=auto;html=1;dashed=1;endArrow=none;endFill=0;fontSize=12;fontColor=#FFB570;strokeColor=#666666;exitX=0;exitY=0.5;exitDx=0;exitDy=0;entryX=1;entryY=0.5;entryDx=0;entryDy=0;strokeWidth=3;" parent="1" source="4" target="AYhglAYsVL35iBowotaw-180" edge="1">
          <mxGeometry relative="1" as="geometry">
            <Array as="points">
              <mxPoint x="360" y="392" />
              <mxPoint x="360" y="229" />
            </Array>
            <mxPoint x="320" y="212" as="targetPoint" />
            <mxPoint x="380.03" y="297" as="sourcePoint" />
          </mxGeometry>
        </mxCell>
        <mxCell id="AYhglAYsVL35iBowotaw-207" value="" style="ellipse;whiteSpace=wrap;html=1;aspect=fixed;fillColor=#dae8fc;strokeColor=#6c8ebf;fontStyle=1;labelPosition=center;verticalLabelPosition=top;align=center;verticalAlign=bottom;fontColor=#0066CC;strokeWidth=2;" parent="1" vertex="1">
          <mxGeometry x="484.97" y="382" width="20" height="20" as="geometry" />
        </mxCell>
        <mxCell id="AYhglAYsVL35iBowotaw-213" style="edgeStyle=orthogonalEdgeStyle;rounded=1;orthogonalLoop=1;jettySize=auto;html=1;dashed=1;endArrow=none;endFill=0;fontSize=12;fontColor=#FFB570;strokeColor=#666666;entryX=0;entryY=0.5;entryDx=0;entryDy=0;exitX=1;exitY=0.5;exitDx=0;exitDy=0;strokeWidth=3;" parent="1" source="AYhglAYsVL35iBowotaw-201" target="AYhglAYsVL35iBowotaw-207" edge="1">
          <mxGeometry relative="1" as="geometry">
            <Array as="points">
              <mxPoint x="450" y="229" />
              <mxPoint x="450" y="392" />
            </Array>
            <mxPoint x="390" y="222" as="sourcePoint" />
            <mxPoint x="517.970000000005" y="222" as="targetPoint" />
          </mxGeometry>
        </mxCell>
        <mxCell id="AYhglAYsVL35iBowotaw-216" value="" style="edgeStyle=orthogonalEdgeStyle;rounded=1;orthogonalLoop=1;jettySize=auto;html=1;dashed=1;endArrow=none;endFill=0;fontSize=12;fontColor=#FFB570;strokeColor=#666666;exitX=1;exitY=0.5;exitDx=0;exitDy=0;entryX=0;entryY=0.5;entryDx=0;entryDy=0;strokeWidth=3;" parent="1" target="AYhglAYsVL35iBowotaw-215" edge="1" source="2xinhm0WvV6_IDHbmxLQ-174">
          <mxGeometry relative="1" as="geometry">
            <Array as="points" />
            <mxPoint x="810" y="229" as="targetPoint" />
            <mxPoint x="660" y="229" as="sourcePoint" />
          </mxGeometry>
        </mxCell>
        <mxCell id="AYhglAYsVL35iBowotaw-215" value="&lt;font style=&quot;font-size: 12px;&quot; color=&quot;#7ea6e0&quot;&gt;2.0&lt;/font&gt;" style="ellipse;whiteSpace=wrap;html=1;aspect=fixed;fontSize=10;fontColor=#333333;fillColor=#ECECEC;strokeColor=#666666;strokeWidth=2;fontStyle=1;labelPosition=center;verticalLabelPosition=bottom;align=center;verticalAlign=top;" parent="1" vertex="1">
          <mxGeometry x="810" y="219" width="20" height="20" as="geometry" />
        </mxCell>
        <mxCell id="AYhglAYsVL35iBowotaw-219" value="" style="edgeStyle=orthogonalEdgeStyle;rounded=1;orthogonalLoop=1;jettySize=auto;html=1;dashed=1;endArrow=none;endFill=0;fontSize=12;fontColor=#FFB570;strokeColor=#666666;exitX=1;exitY=0.5;exitDx=0;exitDy=0;entryX=0;entryY=0.5;entryDx=0;entryDy=0;strokeWidth=3;" parent="1" source="AYhglAYsVL35iBowotaw-215" target="AYhglAYsVL35iBowotaw-231" edge="1">
          <mxGeometry relative="1" as="geometry">
            <Array as="points" />
            <mxPoint x="880" y="229" as="targetPoint" />
            <mxPoint x="870" y="228.8" as="sourcePoint" />
          </mxGeometry>
        </mxCell>
        <mxCell id="AYhglAYsVL35iBowotaw-222" value="" style="edgeStyle=orthogonalEdgeStyle;rounded=1;orthogonalLoop=1;jettySize=auto;html=1;dashed=1;endArrow=block;endFill=0;fontSize=12;fontColor=#FFB570;strokeColor=#666666;exitX=1;exitY=0.5;exitDx=0;exitDy=0;strokeWidth=3;" parent="1" source="AYhglAYsVL35iBowotaw-231" edge="1">
          <mxGeometry relative="1" as="geometry">
            <Array as="points" />
            <mxPoint x="1180" y="229" as="targetPoint" />
            <mxPoint x="1050" y="222" as="sourcePoint" />
          </mxGeometry>
        </mxCell>
        <mxCell id="AYhglAYsVL35iBowotaw-223" value="" style="edgeStyle=orthogonalEdgeStyle;rounded=1;orthogonalLoop=1;jettySize=auto;html=1;dashed=1;endArrow=none;endFill=0;fontSize=12;fontColor=#FFB570;strokeColor=#666666;entryX=0;entryY=0.5;entryDx=0;entryDy=0;exitX=1;exitY=0.5;exitDx=0;exitDy=0;strokeWidth=3;" parent="1" source="AYhglAYsVL35iBowotaw-231" target="12" edge="1">
          <mxGeometry relative="1" as="geometry">
            <Array as="points">
              <mxPoint x="960" y="229" />
              <mxPoint x="960" y="392" />
            </Array>
            <mxPoint x="1120" y="272" as="targetPoint" />
            <mxPoint x="980" y="212" as="sourcePoint" />
          </mxGeometry>
        </mxCell>
        <mxCell id="AYhglAYsVL35iBowotaw-227" style="edgeStyle=orthogonalEdgeStyle;rounded=1;orthogonalLoop=1;jettySize=auto;html=1;dashed=1;endArrow=none;endFill=0;fillColor=#d5e8d4;strokeColor=#82b366;exitX=0.5;exitY=0;exitDx=0;exitDy=0;strokeWidth=3;" parent="1" source="AYhglAYsVL35iBowotaw-235" target="AYhglAYsVL35iBowotaw-228" edge="1">
          <mxGeometry relative="1" as="geometry">
            <Array as="points">
              <mxPoint x="1070" y="321" />
            </Array>
            <mxPoint x="1125.97" y="392.0000000000001" as="sourcePoint" />
          </mxGeometry>
        </mxCell>
        <mxCell id="AYhglAYsVL35iBowotaw-228" value="" style="ellipse;whiteSpace=wrap;html=1;aspect=fixed;fillColor=#d5e8d4;strokeColor=#82b366;strokeWidth=2;" parent="1" vertex="1">
          <mxGeometry x="1090" y="311" width="20" height="20" as="geometry" />
        </mxCell>
        <mxCell id="AYhglAYsVL35iBowotaw-229" style="edgeStyle=orthogonalEdgeStyle;rounded=1;orthogonalLoop=1;jettySize=auto;html=1;dashed=1;endArrow=block;endFill=0;fillColor=#d5e8d4;strokeColor=#82b366;strokeWidth=3;" parent="1" source="AYhglAYsVL35iBowotaw-228" edge="1">
          <mxGeometry relative="1" as="geometry">
            <mxPoint x="1180" y="321" as="targetPoint" />
            <mxPoint x="1230" y="321" as="sourcePoint" />
          </mxGeometry>
        </mxCell>
        <mxCell id="AYhglAYsVL35iBowotaw-231" value="" style="ellipse;whiteSpace=wrap;html=1;aspect=fixed;fontSize=10;fontColor=#333333;fillColor=#ECECEC;strokeColor=#666666;strokeWidth=2;" parent="1" vertex="1">
          <mxGeometry x="900" y="219" width="20" height="20" as="geometry" />
        </mxCell>
        <mxCell id="AYhglAYsVL35iBowotaw-235" value="" style="ellipse;whiteSpace=wrap;html=1;aspect=fixed;fillColor=#dae8fc;strokeColor=#6c8ebf;fontStyle=1;labelPosition=center;verticalLabelPosition=top;align=center;verticalAlign=bottom;fontColor=#0066CC;strokeWidth=2;" parent="1" vertex="1">
          <mxGeometry x="1060" y="382" width="20" height="20" as="geometry" />
        </mxCell>
        <mxCell id="AYhglAYsVL35iBowotaw-236" value="" style="endArrow=block;dashed=1;html=1;fillColor=#dae8fc;strokeColor=#6c8ebf;exitX=1;exitY=0.5;exitDx=0;exitDy=0;strokeWidth=3;endFill=0;" parent="1" source="AYhglAYsVL35iBowotaw-235" edge="1">
          <mxGeometry width="50" height="50" relative="1" as="geometry">
            <mxPoint x="1120.0000000000127" y="391.78999999999996" as="sourcePoint" />
            <mxPoint x="1180" y="392" as="targetPoint" />
            <Array as="points">
              <mxPoint x="1130" y="391.78999999999996" />
            </Array>
          </mxGeometry>
        </mxCell>
        <mxCell id="AYhglAYsVL35iBowotaw-238" value="&lt;font color=&quot;#666666&quot; style=&quot;font-size: 32px;&quot;&gt;GitHub Workflow&lt;/font&gt;" style="text;html=1;strokeColor=none;fillColor=none;align=center;verticalAlign=middle;whiteSpace=wrap;rounded=0;fontColor=#886896;fontSize=32;fontFamily=Verdana;fontStyle=1" parent="1" vertex="1">
          <mxGeometry x="525" y="60" width="450" height="30" as="geometry" />
        </mxCell>
        <mxCell id="AYhglAYsVL35iBowotaw-239" value="&lt;font style=&quot;font-size: 16px;&quot;&gt;clone&lt;/font&gt;" style="text;html=1;strokeColor=none;fillColor=none;align=center;verticalAlign=middle;whiteSpace=wrap;rounded=0;fontSize=16;fontFamily=Lucida Console;fontColor=#666666;fontStyle=4" parent="1" vertex="1">
          <mxGeometry x="298" y="257" width="60" height="30" as="geometry" />
        </mxCell>
        <mxCell id="AYhglAYsVL35iBowotaw-242" value="&lt;font style=&quot;font-size: 16px;&quot;&gt;&lt;u&gt;pull&lt;/u&gt;&lt;/font&gt;" style="text;html=1;strokeColor=none;fillColor=none;align=center;verticalAlign=middle;whiteSpace=wrap;rounded=0;fontSize=33;fontFamily=Lucida Console;fontColor=#666666;" parent="1" vertex="1">
          <mxGeometry x="395" y="272" width="60" height="30" as="geometry" />
        </mxCell>
        <mxCell id="AYhglAYsVL35iBowotaw-243" value="&lt;font style=&quot;font-size: 16px;&quot;&gt;&lt;u&gt;branch&lt;/u&gt;&lt;/font&gt;" style="text;html=1;strokeColor=none;fillColor=none;align=center;verticalAlign=middle;whiteSpace=wrap;rounded=0;fontSize=33;fontFamily=Lucida Console;fontColor=#666666;" parent="1" vertex="1">
          <mxGeometry x="501" y="332" width="60" height="30" as="geometry" />
        </mxCell>
        <mxCell id="AYhglAYsVL35iBowotaw-244" value="&lt;font style=&quot;font-size: 16px;&quot;&gt;&lt;u&gt;commit&lt;/u&gt;&lt;/font&gt;" style="text;html=1;strokeColor=none;fillColor=none;align=center;verticalAlign=middle;whiteSpace=wrap;rounded=0;fontSize=33;fontFamily=Lucida Console;fontColor=#666666;" parent="1" vertex="1">
          <mxGeometry x="599" y="265" width="60" height="30" as="geometry" />
        </mxCell>
        <mxCell id="AYhglAYsVL35iBowotaw-245" value="&lt;font style=&quot;font-size: 16px;&quot;&gt;&lt;u&gt;push&lt;/u&gt;&lt;/font&gt;" style="text;html=1;strokeColor=none;fillColor=none;align=center;verticalAlign=middle;whiteSpace=wrap;rounded=0;fontSize=33;fontFamily=Lucida Console;fontColor=#666666;" parent="1" vertex="1">
          <mxGeometry x="688" y="250" width="60" height="30" as="geometry" />
        </mxCell>
        <mxCell id="AYhglAYsVL35iBowotaw-249" value="&lt;font style=&quot;font-size: 16px;&quot;&gt;&lt;u&gt;pull&lt;/u&gt;&lt;/font&gt;" style="text;html=1;strokeColor=none;fillColor=none;align=center;verticalAlign=middle;whiteSpace=wrap;rounded=0;fontSize=33;fontFamily=Lucida Console;fontColor=#666666;" parent="1" vertex="1">
          <mxGeometry x="900" y="276" width="60" height="30" as="geometry" />
        </mxCell>
        <mxCell id="AYhglAYsVL35iBowotaw-250" value="&lt;font style=&quot;font-size: 16px;&quot;&gt;&lt;u&gt;branch&lt;/u&gt;&lt;/font&gt;" style="text;html=1;strokeColor=none;fillColor=none;align=center;verticalAlign=middle;whiteSpace=wrap;rounded=0;fontSize=33;fontFamily=Lucida Console;fontColor=#666666;" parent="1" vertex="1">
          <mxGeometry x="1079" y="335" width="60" height="30" as="geometry" />
        </mxCell>
        <mxCell id="AYhglAYsVL35iBowotaw-254" value="&lt;font style=&quot;font-size: 16px;&quot;&gt;&lt;u&gt;merge&lt;/u&gt;&lt;/font&gt;" style="text;html=1;strokeColor=none;fillColor=none;align=center;verticalAlign=middle;whiteSpace=wrap;rounded=0;fontSize=33;fontFamily=Lucida Console;fontColor=#666666;" parent="1" vertex="1">
          <mxGeometry x="826" y="169" width="60" height="30" as="geometry" />
        </mxCell>
        <mxCell id="2xinhm0WvV6_IDHbmxLQ-175" value="" style="edgeStyle=orthogonalEdgeStyle;rounded=1;orthogonalLoop=1;jettySize=auto;html=1;dashed=1;endArrow=none;endFill=0;fontSize=12;fontColor=#FFB570;strokeColor=#666666;strokeWidth=3;" parent="1" target="2xinhm0WvV6_IDHbmxLQ-174" edge="1">
          <mxGeometry relative="1" as="geometry">
            <mxPoint x="587.9999999999998" y="229" as="sourcePoint" />
            <mxPoint x="660" y="229" as="targetPoint" />
          </mxGeometry>
        </mxCell>
        <mxCell id="2xinhm0WvV6_IDHbmxLQ-177" style="edgeStyle=orthogonalEdgeStyle;rounded=1;orthogonalLoop=1;jettySize=auto;html=1;dashed=1;endArrow=none;endFill=0;fontSize=12;fontColor=#FFB570;fillColor=#e1d5e7;strokeColor=#9673a6;strokeWidth=3;" parent="1" source="2xinhm0WvV6_IDHbmxLQ-178" target="2xinhm0WvV6_IDHbmxLQ-174" edge="1">
          <mxGeometry relative="1" as="geometry">
            <Array as="points">
              <mxPoint x="690" y="159" />
            </Array>
            <mxPoint x="530" y="125" as="sourcePoint" />
            <mxPoint x="576" y="193" as="targetPoint" />
          </mxGeometry>
        </mxCell>
        <mxCell id="2xinhm0WvV6_IDHbmxLQ-178" value="" style="ellipse;whiteSpace=wrap;html=1;aspect=fixed;fontSize=10;fontColor=#333333;fillColor=#ECECEC;strokeColor=#666666;strokeWidth=2;" parent="1" vertex="1">
          <mxGeometry x="740" y="149" width="20" height="20" as="geometry" />
        </mxCell>
        <mxCell id="2xinhm0WvV6_IDHbmxLQ-180" style="edgeStyle=orthogonalEdgeStyle;rounded=1;orthogonalLoop=1;jettySize=auto;html=1;dashed=1;endArrow=none;endFill=0;fontSize=12;fontColor=#FFB570;fillColor=#e1d5e7;strokeColor=#9673a6;exitX=0.5;exitY=0;exitDx=0;exitDy=0;strokeWidth=3;" parent="1" source="AYhglAYsVL35iBowotaw-215" target="2xinhm0WvV6_IDHbmxLQ-178" edge="1">
          <mxGeometry relative="1" as="geometry">
            <Array as="points">
              <mxPoint x="820" y="159" />
            </Array>
            <mxPoint x="770" y="104" as="sourcePoint" />
            <mxPoint x="730" y="164" as="targetPoint" />
          </mxGeometry>
        </mxCell>
        <mxCell id="vAEL3yL7INn4DsDdT7Pa-36" value="" style="edgeStyle=orthogonalEdgeStyle;rounded=1;orthogonalLoop=1;jettySize=auto;html=1;dashed=1;endArrow=none;endFill=0;fontSize=12;fontColor=#FFB570;strokeColor=#666666;exitX=1;exitY=0.5;exitDx=0;exitDy=0;entryX=0;entryY=0.5;entryDx=0;entryDy=0;" edge="1" parent="1" target="2xinhm0WvV6_IDHbmxLQ-174">
          <mxGeometry relative="1" as="geometry">
            <Array as="points" />
            <mxPoint x="810" y="229" as="targetPoint" />
            <mxPoint x="660" y="229" as="sourcePoint" />
          </mxGeometry>
        </mxCell>
        <mxCell id="2xinhm0WvV6_IDHbmxLQ-174" value="" style="ellipse;whiteSpace=wrap;html=1;aspect=fixed;fontSize=10;fontColor=#333333;fillColor=#ECECEC;strokeColor=#666666;strokeWidth=2;" parent="1" vertex="1">
          <mxGeometry x="680" y="219" width="20" height="20" as="geometry" />
        </mxCell>
        <mxCell id="vAEL3yL7INn4DsDdT7Pa-37" style="edgeStyle=orthogonalEdgeStyle;rounded=1;orthogonalLoop=1;jettySize=auto;html=1;dashed=1;endArrow=none;endFill=0;fontSize=12;fontColor=#FFB570;strokeColor=#666666;exitX=0;exitY=0.5;exitDx=0;exitDy=0;entryX=1;entryY=0.5;entryDx=0;entryDy=0;strokeWidth=3;" edge="1" parent="1" source="AYhglAYsVL35iBowotaw-207" target="4">
          <mxGeometry relative="1" as="geometry">
            <Array as="points">
              <mxPoint x="450" y="392" />
              <mxPoint x="450" y="392" />
            </Array>
            <mxPoint x="420" y="420" as="targetPoint" />
            <mxPoint x="504" y="583" as="sourcePoint" />
          </mxGeometry>
        </mxCell>
        <mxCell id="vAEL3yL7INn4DsDdT7Pa-38" value="&lt;font style=&quot;font-size: 16px;&quot;&gt;&lt;u&gt;pull request&lt;/u&gt;&lt;/font&gt;" style="text;html=1;strokeColor=none;fillColor=none;align=center;verticalAlign=middle;whiteSpace=wrap;rounded=0;fontSize=33;fontFamily=Lucida Console;fontColor=#666666;" vertex="1" parent="1">
          <mxGeometry x="685" y="110" width="130" height="30" as="geometry" />
        </mxCell>
        <mxCell id="vAEL3yL7INn4DsDdT7Pa-39" value="&lt;font style=&quot;font-size: 16px;&quot;&gt;&lt;u&gt;branch&lt;/u&gt;&lt;/font&gt;" style="text;html=1;strokeColor=none;fillColor=none;align=center;verticalAlign=middle;whiteSpace=wrap;rounded=0;fontSize=33;fontFamily=Lucida Console;fontColor=#666666;" vertex="1" parent="1">
          <mxGeometry x="625" y="171" width="60" height="30" as="geometry" />
        </mxCell>
        <mxCell id="AYhglAYsVL35iBowotaw-201" value="&lt;font color=&quot;#7ea6e0&quot;&gt;1.0&lt;/font&gt;" style="ellipse;whiteSpace=wrap;html=1;aspect=fixed;fontSize=12;fontColor=#333333;fillColor=#ECECEC;strokeColor=#666666;strokeWidth=2;verticalAlign=bottom;fontStyle=1;labelPosition=center;verticalLabelPosition=top;align=center;" parent="1" vertex="1">
          <mxGeometry x="400" y="219" width="20" height="20" as="geometry" />
        </mxCell>
      </root>
    </mxGraphModel>
  </diagram>
</mxfile>
